<svg xmlns="http://www.w3.org/2000/svg" xmlns:xlink="http://www.w3.org/1999/xlink" viewBox="0 0 1920 1000"><style type="text/css">path{opacity:.1;clip-path:url(#clipPath);fill:url(#linearGradient);}</style><clipPath id="clipPath"><rect width="1920" height="1000"/></clipPath><linearGradient id="linearGradient" x1="0%" y1="0%" x2="90%" y2="0%"><stop offset="0" stop-color="hsl(0 0% 100%/1)"/><stop offset="1" stop-color="hsl(0 0% 100%/0)"/></linearGradient><g transform="translate(1920,1000)scale(-1,-1)"><path d="M1384.5 343.2L192.7 1535l-213.5-3L1383 128.2l1.5 215z"/><path d="M1919.7 448.3L1359 1009l-100.4-1.4L1919 347.1l.7 101.2z"/><path d="M1176.7 514.3L616 1075l-100.4-1.4L1176 413.1l.7 101.2z"/><path d="M644.7 457.3L84 1018l-100.4-1.4L644 356.1l.7 101.2z"/><path d="M1387.7 448.3L827 1009l-100.4-1.4L1387 347.1l.7 101.2z"/><path d="M1250.1 493.8l-545 545-52.7 43.6 641.9-641.9-44.2 53.3z"/><path d="M891.1 639.1L-778 2308.3l-298.9-4.2L889 338.1l2.1 301z"/><path d="M1870.4 419.8L-28.8 2319l-340.1-4.8L1868 77.3l2.4 342.5z"/><path d="M908.4 436.8L-990.8 2336l-340.1-4.8L906 94.3l2.4 342.5z"/><path d="M1632.4 515.8L-266.8 2415l-340.1-4.8L1630 173.3l2.4 342.5z"/><path d="M1176.3 567.1L-1445.6 3189l-469.5-6.6L1173 94.3l3.3 472.8z"/><path d="M1427.3 580.1L-1194.6 3202l-469.5-6.6L1424 107.3l3.3 472.8z"/><path d="M1649.5 880.2L457.7 2072l-213.5-3L1648 665.2l1.5 215z"/><path d="M675.8 522.2l-2621.9 2621.9-469.4-6.6L672.5 49.4l3.3 472.8z"/><path d="M2595.9 522.2L-26 3144.1l-469.5-6.6L2592.6 49.4l3.3 472.8z"/></g></svg>